<?xml version="1.0" standalone="no"?>
<!DOCTYPE svg PUBLIC "-//W3C//DTD SVG 20010904//EN"
 "http://www.w3.org/TR/2001/REC-SVG-20010904/DTD/svg10.dtd">
<svg version="1.0" xmlns="http://www.w3.org/2000/svg"
 width="260.000000pt" height="260.000000pt" viewBox="0 0 260.000000 260.000000"
 preserveAspectRatio="xMidYMid meet">
<metadata>
Created by potrace 1.14, written by Peter Selinger 2001-2017
</metadata>
<g transform="translate(0.000000,260.000000) scale(0.100000,-0.100000)"
fill="#000000" stroke="none">
<path d="M0 1300 l0 -1300 1300 0 1300 0 0 1300 0 1300 -1300 0 -1300 0 0
-1300z m799 189 c19 -7 31 -18 31 -29 0 -25 -21 -39 -45 -29 -28 11 -47 10
-65 -1 -13 -9 -13 -11 0 -20 8 -6 32 -15 52 -20 50 -14 68 -34 68 -76 0 -51
-45 -77 -123 -71 -75 7 -92 20 -70 53 10 16 20 21 27 16 21 -17 66 -22 88 -11
21 11 21 12 3 25 -10 8 -27 14 -37 14 -33 0 -77 29 -84 54 -9 37 4 65 39 87
36 22 70 24 116 8z m296 -29 c0 -24 -3 -25 -62 -28 -47 -2 -63 -7 -63 -17 0
-11 13 -15 49 -15 52 0 76 -16 65 -44 -5 -12 -19 -16 -60 -16 -47 0 -54 -2
-54 -20 0 -18 7 -20 65 -20 62 0 65 -1 65 -24 0 -28 -10 -31 -110 -31 l-75 0
-3 123 -3 123 93 -3 c92 -3 93 -3 93 -28z m143 -11 c13 -22 29 -39 35 -36 7 2
21 20 32 40 17 31 25 37 53 37 19 0 32 -3 30 -7 -4 -9 -58 -107 -75 -137 -7
-12 -13 -37 -13 -57 0 -40 -14 -51 -49 -42 -17 4 -21 13 -21 45 0 37 -56 158
-81 174 -20 12 -7 24 29 24 33 0 40 -5 60 -41z m282 -78 l0 -119 -28 -4 c-51
-7 -52 -4 -52 116 0 62 3 116 7 119 3 4 21 7 40 7 l33 0 0 -119z m61 -220 c-7
-5 -11 -13 -8 -18 3 -5 2 -15 -4 -23 -6 -11 -9 -6 -9 18 0 24 4 32 18 32 13 0
14 -2 3 -9z m65 0 c-14 -5 -16 -10 -8 -15 7 -4 16 -5 20 -2 5 3 9 -1 9 -8 0
-8 -8 -11 -20 -8 -14 3 -18 1 -13 -6 4 -7 2 -12 -3 -12 -12 0 -15 43 -4 53 3
4 13 7 22 6 12 0 11 -2 -3 -8z m211 3 c-3 -3 -12 -4 -19 -1 -8 3 -5 6 6 6 11
1 17 -2 13 -5z m58 -4 c-4 -6 -2 -17 5 -25 8 -10 8 -15 -2 -21 -7 -4 -10 -4
-6 1 4 4 3 14 -3 21 -10 12 -5 34 7 34 3 0 2 -5 -1 -10z m-431 -24 c-7 -17
-34 -22 -34 -6 0 6 7 10 15 10 8 0 15 5 15 12 0 6 2 9 5 6 3 -3 3 -13 -1 -22z
m483 -13 c-3 -10 -5 -4 -5 12 0 17 2 24 5 18 2 -7 2 -21 0 -30z m163 -1 c0 -1
-9 2 -20 8 -11 6 -20 15 -20 20 0 6 9 2 20 -7 11 -10 20 -19 20 -21z m-383 6
c-3 -8 -6 -5 -6 6 -1 11 2 17 5 13 3 -3 4 -12 1 -19z m-232 2 c-3 -5 -11 -10
-16 -10 -6 0 -7 5 -4 10 3 6 11 10 16 10 6 0 7 -4 4 -10z"/>
</g>
</svg>
